<svg width="24" height="24" viewBox="0 0 24 24" fill="none" xmlns="http://www.w3.org/2000/svg">
<path d="M11.9998 2C9.89181 1.99989 7.86901 2.83176 6.371 4.31479C4.87299 5.79782 4.02084 7.81216 3.99976 9.92C3.99976 15.4 11.0498 21.5 11.3498 21.76C11.5309 21.9149 11.7614 22.0001 11.9998 22.0001C12.2381 22.0001 12.4686 21.9149 12.6498 21.76C12.9998 21.5 19.9998 15.4 19.9998 9.92C19.9787 7.81216 19.1265 5.79782 17.6285 4.31479C16.1305 2.83176 14.1077 1.99989 11.9998 2ZM11.9998 13C11.3075 13 10.6308 12.7947 10.0553 12.4101C9.47969 12.0256 9.03108 11.4789 8.76618 10.8394C8.50127 10.1999 8.43196 9.49612 8.56701 8.81718C8.70206 8.13825 9.0354 7.51461 9.52488 7.02513C10.0144 6.53564 10.638 6.2023 11.3169 6.06725C11.9959 5.9322 12.6996 6.00151 13.3391 6.26642C13.9787 6.53133 14.5253 6.97993 14.9099 7.5555C15.2945 8.13108 15.4998 8.80777 15.4998 9.5C15.4998 10.4283 15.131 11.3185 14.4746 11.9749C13.8183 12.6313 12.928 13 11.9998 13Z" fill="#EEE9E1"/>
</svg>
